<?xml version="1.0" encoding="utf-8"?>
<!-- Generator: Adobe Illustrator 21.1.0, SVG Export Plug-In . SVG Version: 6.00 Build 0)  -->
<svg version="1.1" id="Layer_1" xmlns="http://www.w3.org/2000/svg" xmlns:xlink="http://www.w3.org/1999/xlink" x="0px" y="0px"
	 viewBox="0 0 1400 980" style="enable-background:new 0 0 1400 980;" xml:space="preserve">
<style type="text/css">
	.st0{fill:#EAEAEA;}
	.st1{fill:none;stroke:#686868;stroke-width:7;stroke-miterlimit:10;}
	.st2{fill:#CD72CE;}
	.st3{fill:#7DC6E2;}
	.st4{fill:#F7941E;}
	.st5{fill:#ED4F4F;}
	.st6{fill:#686868;}
	.st7{fill:#FFC24F;}
	.st8{fill:#FFFFFF;}
	.st9{fill:#A0D9EA;}
	.st10{fill:#73B6C6;}
	.st11{fill:#EFCAA8;}
	.st12{fill:#EAAD7A;}
	.st13{fill:#EAB88F;}
	.st14{fill:#FFA748;}
	.st15{fill:#E28223;}
	.st16{fill:#A56417;}
	.st17{fill:#C41E1E;}
	.st18{fill:#EDE6E7;}
	.st19{fill:none;}
	.st20{fill:#3C8996;}
</style>
<g>
	<g>
		<circle class="st0" cx="1234.8" cy="138.8" r="40"/>
		<circle class="st0" cx="1309.8" cy="345.8" r="40"/>
		<circle class="st0" cx="1158.1" cy="309.8" r="46.9"/>
		<circle class="st0" cx="1252.5" cy="670" r="46.9"/>
		<circle class="st0" cx="1133.2" cy="894.6" r="46.9"/>
		<circle class="st0" cx="1250.6" cy="517.8" r="46.9"/>
		<circle class="st0" cx="980.1" cy="149.1" r="46.9"/>
		<g>
			
				<ellipse transform="matrix(0.7071 -0.7071 0.7071 0.7071 -90.3644 717.4211)" class="st0" cx="820.8" cy="467.8" rx="20.3" ry="20.3"/>
		</g>
		<path class="st0" d="M853.5,349.2c0,24.3,10.8,46,27.8,60.7c14,12.1,32.2,19.4,52.2,19.4c19.9,0,38.2-7.3,52.2-19.4
			c17-14.7,27.8-36.4,27.8-60.7c0-44.2-35.8-80-80-80C889.3,269.2,853.5,305,853.5,349.2z"/>
		<path class="st0" d="M552.6,349.2c0,24.3-10.8,46-27.8,60.7c-14,12.1-32.2,19.4-52.2,19.4c-19.9,0-38.2-7.3-52.2-19.4
			c-17-14.7-27.8-36.4-27.8-60.7c0-44.2,35.8-80,80-80C516.7,269.2,552.6,305,552.6,349.2z"/>
		<g>
			
				<ellipse transform="matrix(0.7071 -0.7071 0.7071 0.7071 -348.1066 612.6726)" class="st0" cx="565.5" cy="726.5" rx="20.3" ry="20.3"/>
		</g>
		<g>
			<circle class="st0" cx="537.6" cy="586" r="20.3"/>
		</g>
		<g>
			<circle class="st0" cx="703.5" cy="429.2" r="20.3"/>
		</g>
		<path class="st0" d="M434.8,585.7c0,22.3-9.2,42.5-23.9,57.1c-1.3,1.2-2.6,2.4-3.9,3.6c-11.2,9.7-25.2,16.3-40.5,18.5
			c-3.8,0.6-7.7,0.8-11.7,0.8c-4.1,0-8.2-0.3-12.2-0.9c-15.1-2.3-28.9-8.9-40-18.4c-1.5-1.3-3-2.7-4.4-4.1
			c-14.5-14.5-23.4-34.5-23.4-56.5c0-44.2,35.8-80,80-80C399,505.7,434.8,541.5,434.8,585.7z"/>
		<path class="st0" d="M540.5,816.7c0,24.3-10.8,46-27.8,60.7c-14,12.1-32.2,19.4-52.2,19.4c-19.9,0-38.2-7.3-52.2-19.4
			c-17-14.7-27.8-36.4-27.8-60.7c0-44.2,35.8-80,80-80C504.7,736.7,540.5,772.5,540.5,816.7z"/>
		<g>
			
				<ellipse transform="matrix(0.7071 -0.7071 0.7071 0.7071 -267.5487 807.1566)" class="st0" cx="840.5" cy="726.5" rx="20.3" ry="20.3"/>
		</g>
		<g>
			<circle class="st0" cx="868.5" cy="586" r="20.3"/>
		</g>
		<path class="st0" d="M865.5,816.7c0,24.3,10.8,46,27.8,60.7c14,12.1,32.2,19.4,52.2,19.4s38.2-7.3,52.2-19.4
			c17-14.7,27.8-36.4,27.8-60.7c0-44.2-35.8-80-80-80C901.4,736.7,865.5,772.5,865.5,816.7z"/>
		<path class="st0" d="M778.8,278.7c0,22.8-10.2,43.3-26.2,57.1c-13.2,11.4-30.3,18.2-49.1,18.2c-18.8,0-35.9-6.9-49.1-18.2
			c-16-13.8-26.2-34.3-26.2-57.1c0-41.6,33.7-75.3,75.3-75.3C745.1,203.4,778.8,237.1,778.8,278.7z"/>
		<path class="st0" d="M825.2,605.8c0,35.7-15.4,67.8-39.8,90c-20.4,18.6-47.1,30.3-76.6,31.6c-1.8,0.1-3.5,0.1-5.3,0.1
			c-0.5,0-1,0-1.5,0c-31-0.4-59.1-12.3-80.4-31.7c-24.5-22.3-39.8-54.3-39.8-90c0-67.2,54.5-121.7,121.7-121.7
			C770.7,484.1,825.2,538.6,825.2,605.8z"/>
		<circle class="st0" cx="703.5" cy="605.8" r="121.7"/>
		<path class="st0" d="M971.3,585.7c0,24.3,10.8,46,27.8,60.7c14,12.1,32.2,19.4,52.2,19.4s38.2-7.3,52.2-19.4
			c17-14.7,27.8-36.4,27.8-60.7c0-44.2-35.8-80-80-80C1007.1,505.7,971.3,541.5,971.3,585.7z"/>
		<circle class="st0" cx="251.7" cy="309.8" r="46.9"/>
		<circle class="st0" cx="175.2" cy="138.8" r="40"/>
		<circle class="st0" cx="100.2" cy="345.8" r="40"/>
		<circle class="st0" cx="157.3" cy="670" r="46.9"/>
		<circle class="st0" cx="276.6" cy="894.6" r="46.9"/>
		<circle class="st0" cx="159.2" cy="517.8" r="46.9"/>
		<circle class="st0" cx="429.8" cy="149.1" r="46.9"/>
		<circle class="st0" cx="707.4" cy="92.8" r="46.9"/>
	</g>
	<g>
		<polyline class="st1" points="1218.3,128.5 1148.3,302.4 1296.2,334 		"/>
		<circle class="st2" cx="1224.8" cy="131.4" r="40"/>
		<circle class="st3" cx="1299.8" cy="338.4" r="40"/>
		<polyline class="st1" points="171.7,128.5 241.7,302.4 93.8,334 		"/>
		<line class="st1" x1="695.9" y1="116" x2="695.9" y2="280.8"/>
		<line class="st1" x1="936.3" y1="817.2" x2="1124.2" y2="888.6"/>
		<line class="st1" x1="1056.7" y1="579.4" x2="1246.3" y2="672.6"/>
		<line class="st1" x1="1053.4" y1="583.5" x2="1253.3" y2="515.3"/>
		<polyline class="st1" points="1194.1,294.9 927.8,340 974.3,139.9 		"/>
		<circle class="st4" cx="1148.1" cy="302.4" r="46.9"/>
		<circle class="st5" cx="1242.5" cy="662.7" r="46.9"/>
		<circle class="st4" cx="1123.2" cy="887.2" r="46.9"/>
		<circle class="st3" cx="1240.6" cy="510.5" r="46.9"/>
		<circle class="st3" cx="970.1" cy="141.8" r="46.9"/>
		<line class="st1" x1="453.5" y1="817.2" x2="265.6" y2="888.6"/>
		<line class="st1" x1="333.1" y1="579.4" x2="143.6" y2="672.6"/>
		<line class="st1" x1="336.4" y1="583.5" x2="136.5" y2="515.3"/>
		<polyline class="st1" points="195.7,294.9 462,340 415.5,139.9 		"/>
		<g>
			<path class="st6" d="M919.2,351.3l0.8,0.8c1.1,1.1,1.1,3,0,4.2L760.6,515.7c-1.1,1.1-3,1.1-4.2,0l-0.8-0.8c-1.1-1.1-1.1-3,0-4.2
				L915,351.3C916.2,350.1,918,350.1,919.2,351.3z"/>
			
				<ellipse transform="matrix(0.7071 -0.7071 0.7071 0.7071 -88.1079 708.2022)" class="st2" cx="810.8" cy="460.5" rx="20.3" ry="20.3"/>
		</g>
		<path class="st7" d="M843.5,341.8c0,24.3,10.8,46,27.8,60.7c14,12.1,32.2,19.4,52.2,19.4c19.9,0,38.2-7.3,52.2-19.4
			c17-14.7,27.8-36.4,27.8-60.7c0-44.2-35.8-80-80-80C879.3,261.8,843.5,297.6,843.5,341.8z"/>
		<path class="st6" d="M871.3,402.5c14,12.1,32.2,19.4,52.2,19.4c19.9,0,38.2-7.3,52.2-19.4l-4.3-24.5c-0.9-3.7-3.5-6.6-7.1-7.8
			c-6-2-15-4.6-21.7-6.5c-1-0.3-2-0.6-2.9-0.8c-3.4-0.9-5.7-1.6-5.7-1.6l-0.3-0.1l-9.9-2.4v-0.1l-0.3,0.1l-0.3-0.1v0.1l-9.6,2.3
			l-0.5,0.1c0,0-2.6,0.7-6.4,1.7h0c-1.2,0.3-2.5,0.7-3.8,1.1c-6.4,1.8-14.6,4.2-20.1,6c-3.6,1.2-6.3,4.2-7.1,7.8L871.3,402.5z"/>
		<path class="st8" d="M944.3,364.2l-12.6,57.3c-2.7,0.3-5.4,0.4-8.2,0.4c-2.6,0-5.1-0.1-7.6-0.4l-14.5-56.9c0.5-0.1,1-0.3,1.4-0.4
			c0.8-0.2,1.5-0.4,2.2-0.6c0.6-0.2,1.1-0.3,1.6-0.5c3.8-1.1,6.4-1.7,6.4-1.7l0.3-0.1l0.2,0l9.6-2.3v-0.1l0.3,0.1l0.3-0.1v0.1
			l9.8,2.4l0,0l0.3,0.1c0,0,2.3,0.6,5.7,1.6c0.6,0.2,1.2,0.3,1.9,0.5c0.3,0.1,0.7,0.2,1,0.3C943.1,363.9,943.7,364,944.3,364.2z"/>
		<g>
			
				<ellipse transform="matrix(0.7071 -0.7071 0.7071 0.7071 -156.7899 548.3892)" class="st0" cx="583.6" cy="463.5" rx="20.3" ry="20.3"/>
			<path class="st6" d="M466.9,351.3l-0.8,0.8c-1.1,1.1-1.1,3,0,4.2l159.4,159.4c1.1,1.1,3,1.1,4.2,0l0.8-0.8c1.1-1.1,1.1-3,0-4.2
				L471.1,351.3C469.9,350.1,468,350.1,466.9,351.3z"/>
			
				<ellipse transform="matrix(0.7071 -0.7071 0.7071 0.7071 -157.1093 541.618)" class="st3" cx="575.2" cy="460.5" rx="20.3" ry="20.3"/>
		</g>
		<path class="st2" d="M542.6,341.8c0,24.3-10.8,46-27.8,60.7c-14,12.1-32.2,19.4-52.2,19.4c-19.9,0-38.2-7.3-52.2-19.4
			c-17-14.7-27.8-36.4-27.8-60.7c0-44.2,35.8-80,80-80C506.7,261.8,542.6,297.6,542.6,341.8z"/>
		<g>
			<path class="st6" d="M446.3,827.6l0.8,0.8c1.1,1.1,3,1.1,4.2,0L610.7,669c1.1-1.1,1.1-3,0-4.2l-0.8-0.8c-1.1-1.1-3-1.1-4.2,0
				L446.3,823.4C445.2,824.5,445.2,826.4,446.3,827.6z"/>
			
				<ellipse transform="matrix(0.7071 -0.7071 0.7071 0.7071 -345.8501 603.4536)" class="st5" cx="555.5" cy="719.2" rx="20.3" ry="20.3"/>
		</g>
		<g>
			<path class="st6" d="M373.7,578.1v1.2c0,1.6,1.3,3,3,3h225.5c1.6,0,3-1.3,3-3v-1.2c0-1.6-1.3-3-3-3H376.7
				C375.1,575.1,373.7,576.4,373.7,578.1z"/>
			<circle class="st7" cx="527.6" cy="578.7" r="20.3"/>
		</g>
		<g>
			<path class="st6" d="M694.1,268.1h-1.2c-1.6,0-3,1.3-3,3v225.5c0,1.6,1.3,3,3,3h1.2c1.6,0,3-1.3,3-3V271
				C697,269.4,695.7,268.1,694.1,268.1z"/>
			<circle class="st4" cx="693.5" cy="421.9" r="20.3"/>
		</g>
		<path class="st5" d="M424.8,578.4c0,22.3-9.2,42.5-23.9,57.1c-1.3,1.2-2.6,2.4-3.9,3.6c-11.2,9.7-25.2,16.3-40.5,18.5
			c-3.8,0.6-7.7,0.8-11.7,0.8c-4.1,0-8.2-0.3-12.2-0.9c-15.1-2.3-28.9-8.9-40-18.4c-1.5-1.3-3-2.7-4.4-4.1
			c-14.5-14.5-23.4-34.5-23.4-56.5c0-44.2,35.8-80,80-80C389,498.4,424.8,534.2,424.8,578.4z"/>
		<g>
			<path class="st7" d="M530.5,809.4c0,24.3-10.8,46-27.8,60.7c-14,12.1-32.2,19.4-52.2,19.4c-19.9,0-38.2-7.3-52.2-19.4
				c-17-14.7-27.8-36.4-27.8-60.7c0-44.2,35.8-80,80-80C494.7,729.4,530.5,765.2,530.5,809.4z"/>
			<g>
				<path class="st6" d="M478.2,788.9c0-31.4-23.7-34-27.3-32.6c-3.6-1.4-27.3,1.2-27.3,32.6c0,26.4-3.8,70.1-3.8,70.1h30.7h0.8H482
					C482,859,478.2,815.3,478.2,788.9z"/>
				<path class="st9" d="M502.7,870c-14,12.1-32.2,19.4-52.2,19.4c-19.9,0-38.2-7.3-52.2-19.4l4.3-24.5c0.9-3.7,3.5-6.6,7.1-7.8
					c6-2,15-4.6,21.7-6.5c1-0.3,2-0.6,2.9-0.8c3.4-0.9,5.7-1.6,5.7-1.6l0.3-0.1l9.9-2.4v-0.1l0.3,0.1l0.3-0.1v0.1l9.6,2.3l0.5,0.1
					c0,0,2.6,0.7,6.4,1.7h0c1.2,0.3,2.5,0.7,3.8,1.1c6.4,1.8,14.6,4.2,20.1,6c3.6,1.2,6.3,4.2,7.1,7.8L502.7,870z"/>
				<path class="st10" d="M430.7,842.1l6.9-1.9l-2.4,6.1l15.6,18.1l15.6-18.1l-2.4-6.1l6.9,1.9l-1.3-10.8c-0.8-0.2-1.5-0.4-2.2-0.6
					h0c-3.8-1.1-6.4-1.7-6.4-1.7l-0.5-0.1l-9.6-2.3v-0.1l-0.3,0.1l-0.3-0.1v0.1l-9.9,2.4l-0.3,0.1c0,0-2.3,0.6-5.7,1.6
					c-0.7,0.2-1.5,0.4-2.3,0.6L430.7,842.1z"/>
				<polygon class="st11" points="460.5,828.8 450.8,853.8 440.4,828.8 440.4,810.6 460.5,810.6 				"/>
				<path class="st12" d="M440.4,821.3c3.2,2.9,6.8,4.9,10.4,4.9c3.4,0,6.7-1.8,9.8-4.3v-11.2h-20.1V821.3z"/>
				<g>
					<circle class="st11" cx="432.9" cy="793.6" r="5.9"/>
					<circle class="st13" cx="432.9" cy="793.6" r="3.5"/>
					<circle class="st11" cx="468" cy="793.6" r="5.9"/>
					<circle class="st13" cx="468" cy="793.6" r="3.5"/>
					<path class="st11" d="M468.2,783.7v18.2c0,4.8-8.8,18.7-17.5,18.8c-8.8,0-17.6-13.9-17.6-18.8v-18.2c0,0,10.9-3.5,18-11.2
						C451.1,772.5,459.7,780.6,468.2,783.7z"/>
				</g>
				<rect x="469.4" y="872" class="st10" width="19.1" height="2.9"/>
			</g>
		</g>
		<g>
			<path class="st6" d="M939.8,827.6l-0.8,0.8c-1.1,1.1-3,1.1-4.2,0L775.3,669c-1.1-1.1-1.1-3,0-4.2l0.8-0.8c1.1-1.1,3-1.1,4.2,0
				l159.4,159.4C940.9,824.5,940.9,826.4,939.8,827.6z"/>
			
				<ellipse transform="matrix(0.7071 -0.7071 0.7071 0.7071 -265.2921 797.9377)" class="st3" cx="830.5" cy="719.2" rx="20.3" ry="20.3"/>
		</g>
		<g>
			<path class="st6" d="M1012.3,578.1v1.2c0,1.6-1.3,3-3,3H783.9c-1.6,0-3-1.3-3-3v-1.2c0-1.6,1.3-3,3-3h225.5
				C1011,575.1,1012.3,576.4,1012.3,578.1z"/>
			<circle class="st5" cx="858.5" cy="578.7" r="20.3"/>
		</g>
		<path class="st5" d="M855.5,809.4c0,24.3,10.8,46,27.8,60.7c14,12.1,32.2,19.4,52.2,19.4s38.2-7.3,52.2-19.4
			c17-14.7,27.8-36.4,27.8-60.7c0-44.2-35.8-80-80-80C891.4,729.4,855.5,765.2,855.5,809.4z"/>
		<path class="st3" d="M768.8,271.3c0,22.8-10.2,43.3-26.2,57.1c-13.2,11.4-30.3,18.2-49.1,18.2c-18.8,0-35.9-6.9-49.1-18.2
			c-16-13.8-26.2-34.3-26.2-57.1c0-41.6,33.7-75.3,75.3-75.3C735.1,196.1,768.8,229.8,768.8,271.3z"/>
		<path class="st14" d="M742.6,328.4c-13.2,11.4-30.3,18.2-49.1,18.2c-18.8,0-35.9-6.9-49.1-18.2l4.1-23.1c0.8-3.4,3.3-6.2,6.7-7.4
			c5.7-1.9,14.2-4.3,20.4-6.1c1-0.3,1.9-0.5,2.8-0.8c3.2-0.9,5.4-1.5,5.4-1.5l0.2-0.1l9.3-2.3v-0.1l0.3,0.1l0.3-0.1v0.1l9.1,2.2
			l0.5,0.1c0,0,2.5,0.7,6,1.6h0c1.1,0.3,2.3,0.6,3.6,1c6.1,1.7,13.7,3.9,18.9,5.7c3.4,1.1,5.9,3.9,6.7,7.4L742.6,328.4z"/>
		<path class="st15" d="M674.8,302.1l6.5-1.8l-2.3,5.8l14.7,17l14.7-17l-2.3-5.8l6.5,1.8l-1.3-10.2c-0.7-0.2-1.4-0.4-2.1-0.6h0
			c-3.6-1-6-1.6-6-1.6l-0.5-0.1l-9.1-2.2v-0.1l-0.3,0.1l-0.3-0.1v0.1l-9.3,2.3l-0.2,0.1c0,0-2.2,0.6-5.4,1.5
			c-0.7,0.2-1.4,0.4-2.2,0.6L674.8,302.1z"/>
		<rect x="711.2" y="330.2" class="st15" width="18" height="2.8"/>
		<g>
			<path class="st3" d="M815.2,598.5c0,35.7-15.4,67.8-39.8,90c-20.4,18.6-47.1,30.3-76.6,31.6c-1.8,0.1-3.5,0.1-5.3,0.1
				c-0.5,0-1,0-1.5,0c-31-0.4-59.1-12.3-80.4-31.7c-24.5-22.3-39.8-54.4-39.8-90c0-67.2,54.5-121.7,121.7-121.7
				C760.7,476.8,815.2,531.3,815.2,598.5z"/>
			<g>
				<path class="st6" d="M775.3,688.5c-21.6,19.7-50.3,31.7-81.9,31.7s-60.3-12-81.9-31.7l5.3-30.1c1.4-5.9,5.7-10.6,11.4-12.5
					c9.6-3.2,24.1-7.4,34.7-10.3c1.7-0.5,3.2-0.9,4.7-1.3c5.5-1.5,9.2-2.5,9.2-2.5l0.4-0.1l15.8-3.9v-0.2l0.4,0.1l0.4-0.1v0.2
					l15.4,3.7l0.8,0.2c0,0,4.2,1.1,10.3,2.8h0c1.9,0.5,3.9,1.1,6.1,1.7c10.3,2.9,23.3,6.6,32.2,9.6c5.7,1.9,10,6.6,11.4,12.5
					L775.3,688.5z"/>
				<path class="st8" d="M726.5,636.3l-20.1,60.8v0l-7.6,23c-1.8,0.1-3.5,0.1-5.3,0.1c-0.5,0-1,0-1.5,0l-9.8-28.4v0L663,635.6
					c1.7-0.5,3.2-0.9,4.7-1.3c5.5-1.5,9.2-2.5,9.2-2.5l0.4-0.1l15.8-3.9v-0.2l0.4,0.1l0.4-0.1v0.2l15.4,3.8l0.8,0.2
					c0,0,4.2,1.1,10.3,2.8C722.3,635.1,724.4,635.7,726.5,636.3z"/>
				<polygon class="st11" points="709.4,631.7 693.9,647.6 677.2,631.7 677.2,602.5 709.4,602.5 				"/>
				<path class="st12" d="M677.2,619.6c5.1,4.6,10.8,7.8,16.6,7.8c5.4,0,10.8-2.8,15.6-6.9v-18h-32.2V619.6z"/>
				<g>
					<path class="st16" d="M659.6,571.5l-1.1-12.5c-1.3-14.2,3.4-29.9,14.1-38.8c9.3-7.7,23.9-9.2,35.4-0.6c0,0,7.2-3.9,15.9,5.4
						c11.8,12.6,2.6,51,2.6,51h-54.1L659.6,571.5z"/>
					<circle class="st11" cx="665.2" cy="575.3" r="9.4"/>
					<circle class="st13" cx="665.2" cy="575.3" r="5.5"/>
					<circle class="st11" cx="721.4" cy="575.3" r="9.4"/>
					<circle class="st13" cx="721.4" cy="575.3" r="5.5"/>
					<path class="st11" d="M721.8,559.5v29.2c0,7.7-14,30-28.1,30c-14.1,0-28.2-22.3-28.2-30v-29.2c0,0,33.3-9.2,40.7-15.9
						C706.3,543.6,714.7,556.3,721.8,559.5z"/>
				</g>
				<path class="st5" d="M698.8,720l7-21.1l-3.3-31.6c0.7-0.9-5.5-0.4-8.5-0.1c-3-0.3-9.2-0.7-8.5,0.1l-2.5,26.3l9.1,26.5L698.8,720
					z"/>
				<polygon class="st17" points="702.4,667.2 709.4,661.4 694.1,647.5 694.1,647.5 694,647.5 694,647.5 694,647.5 678.7,661.4 
					685.4,667.2 				"/>
				<path class="st18" d="M694,647.5l-15,17.1l-11.3-30.3c5.5-1.5,9.2-2.5,9.2-2.5l0.4-0.1L694,647.5z"/>
				<path class="st18" d="M720.3,634.6l-8.5,30L694,647.5l15.2-15.9l0,0l0.8,0.2C710,631.8,714.2,632.9,720.3,634.6z"/>
			</g>
			<circle class="st19" cx="693.5" cy="598.5" r="121.7"/>
		</g>
		<g>
			<path class="st6" d="M345,516L345,516c-14,0-25.3,11.3-25.3,25.3v17.1h50.6v-17.1C370.3,527.3,359,516,345,516z"/>
			<path class="st8" d="M400.9,635.4c-1.3,1.2-2.6,2.4-3.9,3.6c-14,12.1-32.2,19.4-52.2,19.4c-19.9,0-38.2-7.3-52.2-19.4
				c-1.5-1.3-3-2.7-4.4-4.1l2.9-16.5c1-4.1,4-7.4,7.9-8.7c6.7-2.3,16.8-5.1,24.2-7.2c1.2-0.3,2.3-0.6,3.3-0.9
				c3.8-1.1,6.4-1.7,6.4-1.7l0.3-0.1l11-2.7V597l0.3,0.1l0.3-0.1v0.1l10.7,2.6l0.6,0.1c0,0,2.9,0.8,7.2,2h0c1.3,0.4,2.7,0.8,4.3,1.2
				c7.2,2,16.2,4.6,22.4,6.7c4,1.3,7,4.6,7.9,8.7L400.9,635.4z"/>
			<polygon class="st11" points="355.6,599.8 344.8,610.9 333.1,599.8 333.1,579.4 355.6,579.4 			"/>
			<path class="st12" d="M333.1,591.4c3.5,3.2,7.6,5.4,11.6,5.4c3.8,0,7.5-2,10.9-4.8v-12.6h-22.5V591.4z"/>
			<circle class="st11" cx="324.8" cy="560.5" r="6.5"/>
			<circle class="st13" cx="324.8" cy="560.5" r="3.9"/>
			<circle class="st11" cx="364" cy="560.5" r="6.5"/>
			<circle class="st13" cx="364" cy="560.5" r="3.9"/>
			<path class="st11" d="M364.2,549.5v20.3c0,5.4-9.8,20.9-19.6,20.9c-9.8,0-19.6-15.5-19.6-20.9v-20.3l6.1-11.6
				c0.7-1.3,2.1-1.9,3.5-1.5l9.9,2.7c0.9,0.3,1.9,0.2,2.8,0l8.4-2.5c1.5-0.4,3,0.3,3.6,1.7L364.2,549.5z"/>
			<path class="st10" d="M356.4,657.5c-3.8,0.6-7.7,0.8-11.7,0.8c-4.1,0-8.2-0.3-12.2-0.9l6.3-32.8c-0.5-0.6,3.9-0.3,6-0.1
				c2.1-0.2,6.4-0.5,6,0.1L356.4,657.5z"/>
			<polygon class="st20" points="350.7,624.6 355.6,620.6 344.9,610.8 344.9,610.8 344.9,610.8 344.9,610.8 344.9,610.8 
				334.2,620.6 338.9,624.6 			"/>
			<path class="st18" d="M344.9,610.8l-10.5,11.9l-7.9-21.1c3.8-1.1,6.4-1.7,6.4-1.7l0.3-0.1L344.9,610.8z"/>
			<path class="st18" d="M363.2,601.8l-5.9,20.9l-12.4-11.9l10.6-11.1l0,0l0.6,0.1C356,599.9,358.9,600.7,363.2,601.8z"/>
		</g>
		<path class="st6" d="M439,326c0,0-1.9-26,8.7-33.7c11.6-8.5,19.2-0.6,19.2-0.6s5.1-2.3,10.2-0.1s19.1,19.1,8.8,34.4
			c-10.3,15.3-30.6,4-30.6,4L439,326z"/>
		<g>
			<path class="st8" d="M514.7,402.5c-14,12.1-32.2,19.4-52.2,19.4s-38.2-7.3-52.2-19.4l4.3-24.5c0.9-3.7,3.5-6.6,7.1-7.8
				c6-2,15-4.6,21.7-6.5c0.4-0.1,0.9-0.2,1.3-0.3c0.6-0.2,1.1-0.3,1.7-0.5c3.4-1,5.7-1.6,5.7-1.6l0.3-0.1l9.9-2.4v-0.1l0.3,0.1
				l0.3-0.1v0.1l9.6,2.3l0.2,0l0.3,0.1c0,0,2.6,0.7,6.4,1.7c0.5,0.1,1,0.3,1.5,0.4h0c0.8,0.2,1.5,0.4,2.3,0.6
				c6.4,1.8,14.6,4.2,20.1,6c3.6,1.2,6.3,4.2,7.1,7.8L514.7,402.5z"/>
			<polygon class="st11" points="472.5,361.3 462.8,371.8 452.4,361.3 452.4,343 472.5,343 			"/>
			<path class="st12" d="M452.4,353.7c3.2,2.9,6.8,4.9,10.4,4.9c3.4,0,6.7-1.8,9.8-4.3V343h-20.1V353.7z"/>
			<g>
				<circle class="st11" cx="444.9" cy="326" r="5.9"/>
				<circle class="st13" cx="444.9" cy="326" r="3.5"/>
				<circle class="st11" cx="480" cy="326" r="5.9"/>
				<circle class="st13" cx="480" cy="326" r="3.5"/>
				<path class="st11" d="M480.3,316.2v18.2c0,4.8-8.8,18.7-17.5,18.8c-8.8,0-17.6-13.9-17.6-18.8v-18.2c0,0,15.8-1.7,22.5-9.3
					C467.6,306.9,473.4,312.1,480.3,316.2z"/>
			</g>
		</g>
		<path class="st18" d="M462.8,371.8l-15,12.1l-3.1-20.5c0.6-0.2,1.1-0.3,1.7-0.5c3.4-1,5.7-1.6,5.7-1.6l0.3-0.1L462.8,371.8z"/>
		<path class="st18" d="M480.9,363.5l-3.3,21l-14.7-12.7l9.8-10.6l0,0l0.3,0.1c0,0,2.6,0.7,6.4,1.7
			C479.9,363.2,480.4,363.4,480.9,363.5z"/>
		<circle class="st18" cx="462.8" cy="381.4" r="2.3"/>
		<circle class="st18" cx="462.8" cy="391.2" r="2.3"/>
		<path class="st6" d="M725,280.9c0,0-4.6-10.5-6.5-32.5c-2.4-27.3-22.5-25.9-25.1-25.6c-2.5-0.3-22.7-1.7-25.1,25.6
			c-1.9,22-6.5,32.5-6.5,32.5s17.9,6.9,31.6,4.8C707.1,287.8,725,280.9,725,280.9z"/>
		<polygon class="st11" points="702.9,289.6 693.7,313.2 683.9,289.6 683.9,272.4 702.9,272.4 		"/>
		<path class="st12" d="M683.9,282.5c3,2.7,6.4,4.6,9.8,4.6c3.2,0,6.3-1.7,9.2-4.1v-10.6h-18.9V282.5z"/>
		<g>
			<circle class="st11" cx="676.9" cy="256.5" r="5.5"/>
			<circle class="st13" cx="676.9" cy="256.5" r="3.3"/>
			<circle class="st11" cx="709.9" cy="256.5" r="5.5"/>
			<circle class="st13" cx="709.9" cy="256.5" r="3.3"/>
			<path class="st11" d="M710.1,247.2v17.2c0,4.5-8.2,17.6-16.5,17.6c-8.3,0-16.6-13.1-16.6-17.6v-17.2h12.9l3.5-7.8l3.5,7.7
				C697,247,710.5,247.5,710.1,247.2z"/>
		</g>
		<path class="st18" d="M923.2,372l-10.3,10.4l-7.9-18.9c0.6-0.2,1.1-0.3,1.6-0.5c3.8-1.1,6.4-1.7,6.4-1.7l0.3-0.1l0.1,0L923.2,372z
			"/>
		<path class="st18" d="M941.5,363.4l-7.9,19L923.3,372l10.3-10.7l0,0l0,0l0.3,0.1c0,0,2.3,0.6,5.7,1.6
			C940.3,363.1,940.9,363.2,941.5,363.4z"/>
		<polygon class="st17" points="923.4,372.1 914.8,380.5 919.3,388.5 922.5,388.5 924.2,388.5 927.3,388.5 931.8,380.5 		"/>
		<path class="st5" d="M927.3,388.5h-8l-3.4,33c2.5,0.2,5,0.4,7.6,0.4c2.8,0,5.5-0.2,8.2-0.4C932,421.4,927.3,388.5,927.3,388.5z"/>
		<path class="st6" d="M946.7,325.5V312c0-11.7-9-21.7-20.7-22.5c-0.4,0-0.8,0-1.2-0.1v0c-0.3,0-0.7,0-1,0c-0.3,0-0.6,0-0.9,0v0
			c-1.2,0-2.4,0.1-3.5,0.3c-11.1,1.5-19.2,11.2-19.2,22.4v13.5H946.7z"/>
		<g>
			<polygon class="st11" points="913.5,361.3 923.2,372 933.7,361.3 933.7,343 913.5,343 			"/>
			<path class="st12" d="M933.7,353.7c-3.2,2.9-6.8,4.9-10.4,4.9c-3.4,0-6.7-1.8-9.8-4.3V343h20.1V353.7z"/>
			<g>
				<circle class="st11" cx="941.2" cy="326" r="5.9"/>
				<circle class="st13" cx="941.2" cy="326" r="3.5"/>
				<circle class="st11" cx="906" cy="326" r="5.9"/>
				<circle class="st13" cx="906" cy="326" r="3.5"/>
				<path class="st11" d="M940.9,316.2v18.2c0,4.8-8.8,18.8-17.6,18.8c-8.8,0-17.5-13.9-17.5-18.8v-18.2l5.5-7.6l6.3,1
					c3.9,0.6,7.8,0.6,11.7,0l6.8-1L940.9,316.2z"/>
			</g>
		</g>
		<path class="st2" d="M961.3,578.4c0,24.3,10.8,46,27.8,60.7c14,12.1,32.2,19.4,52.2,19.4s38.2-7.3,52.2-19.4
			c17-14.7,27.8-36.4,27.8-60.7c0-44.2-35.8-80-80-80C997.1,498.4,961.3,534.2,961.3,578.4z"/>
		<path class="st6" d="M1041.5,526.7L1041.5,526.7c-12.6,0-22.8,10.2-22.8,22.8v16h45.7v-16C1064.3,537,1054.1,526.7,1041.5,526.7z"
			/>
		<g>
			<path class="st8" d="M989.1,639c14,12.1,32.2,19.4,52.2,19.4s38.2-7.3,52.2-19.4l-4.3-24.5c-0.9-3.7-3.5-6.6-7.1-7.8
				c-6-2-15-4.6-21.7-6.5c-1-0.3-2-0.6-2.9-0.8c-3.4-0.9-5.7-1.6-5.7-1.6l-0.3-0.1l-9.9-2.4v-0.1l-0.3,0.1l-0.3-0.1v0.1l-9.6,2.3
				l-0.5,0.1c0,0-2.6,0.7-6.4,1.7h0c-1.2,0.3-2.5,0.7-3.8,1.1c-6.4,1.8-14.6,4.2-20.1,6c-3.6,1.2-6.3,4.2-7.1,7.8L989.1,639z"/>
			<path class="st18" d="M1061.1,611l-6.9-1.9l2.4,6.1l-15.6,18.1l-15.6-18.1l2.4-6.1l-6.9,1.9l1.3-10.8c0.8-0.2,1.5-0.4,2.2-0.6h0
				c3.8-1.1,6.4-1.7,6.4-1.7l0.5-0.1l9.6-2.3v-0.1l0.3,0.1l0.3-0.1v0.1l9.9,2.4l0.3,0.1c0,0,2.3,0.6,5.7,1.6
				c0.7,0.2,1.5,0.4,2.3,0.6L1061.1,611z"/>
			<polygon class="st11" points="1031.3,597.8 1041,622.8 1051.4,597.8 1051.4,579.5 1031.3,579.5 			"/>
			<path class="st12" d="M1051.4,590.3c-3.2,2.9-6.8,4.9-10.4,4.9c-3.4,0-6.7-1.8-9.8-4.3v-11.2h20.1V590.3z"/>
			<g>
				<circle class="st11" cx="1058.9" cy="562.6" r="5.9"/>
				<circle class="st13" cx="1058.9" cy="562.6" r="3.5"/>
				<circle class="st11" cx="1023.8" cy="562.6" r="5.9"/>
				<circle class="st13" cx="1023.8" cy="562.6" r="3.5"/>
				<path class="st11" d="M1023.6,552.7v18.2c0,4.8,8.8,18.7,17.5,18.8c8.8,0,17.6-13.9,17.6-18.8v-18.2c0,0-11.5-0.3-17.9-9.3
					C1040.8,543.4,1038,550.3,1023.6,552.7z"/>
			</g>
		</g>
		<rect x="1056.8" y="634.7" class="st18" width="16.1" height="2.6"/>
		<circle class="st6" cx="1041.7" cy="526.2" r="10.5"/>
		<path class="st6" d="M911.6,791.6c0,0-1.2-23.6,8.2-31.3c12.6-10.4,21-3.1,21-3.1s7.5-2.5,12.4,0.8c7.1,4.9,13.5,31,4,38.3
			C947.6,803.6,911.6,791.6,911.6,791.6z"/>
		<g>
			<path class="st14" d="M987.7,870.1c-14,12.1-32.2,19.4-52.2,19.4c-19.9,0-38.2-7.3-52.2-19.4l4.3-24.5c0.9-3.7,3.5-6.6,7.1-7.8
				c5.6-1.9,13.7-4.2,20.1-6c1.3-0.4,2.6-0.7,3.7-1c0,0,0.1,0,0.1,0c3.8-1.1,6.4-1.7,6.4-1.7l0.4-0.1l0.2,0l9.6-2.3v-0.1l0.3,0.1
				l0.3-0.1v0.1l9.9,2.4l0.2,0.1c0,0,2.3,0.6,5.7,1.6c0.9,0.2,1.9,0.5,2.9,0.8c6.6,1.8,15.7,4.4,21.7,6.5c3.6,1.2,6.3,4.2,7.1,7.8
				L987.7,870.1z"/>
			<polygon class="st11" points="925.6,828.8 935.3,844 945.7,828.8 945.7,810.6 925.6,810.6 			"/>
			<path class="st12" d="M945.7,821.3c-3.2,2.9-6.8,4.9-10.4,4.9c-3.4,0-6.7-1.8-9.8-4.3v-11.2h20.1V821.3z"/>
			<g>
				<circle class="st11" cx="953.2" cy="793.6" r="5.9"/>
				<circle class="st13" cx="953.2" cy="793.6" r="3.5"/>
				<circle class="st11" cx="918.1" cy="793.6" r="5.9"/>
				<circle class="st13" cx="918.1" cy="793.6" r="3.5"/>
				<path class="st11" d="M917.8,783.7v18.2c0,4.8,8.8,18.7,17.5,18.8c8.8,0,17.6-13.9,17.6-18.8v-18.2c0,0-4.9-2.1-12-9.7
					C940.9,774,929.2,780.2,917.8,783.7z"/>
			</g>
		</g>
		<path class="st18" d="M935.3,844l-12.7,11.7l-4-25c0,0,0.1,0,0.1,0c3.8-1.1,6.4-1.7,6.4-1.7l0.4-0.1l0.1,0L935.3,844z"/>
		<path class="st18" d="M935.3,843.8l13.4,11.9l4-25c0,0-0.1,0-0.1,0c-3.8-1.1-6.4-1.7-6.4-1.7l-0.4-0.1l-0.1,0L935.3,843.8z"/>
		<circle class="st5" cx="241.7" cy="302.4" r="46.9"/>
		<circle class="st2" cx="165.2" cy="131.4" r="40"/>
		<circle class="st2" cx="90.2" cy="338.4" r="40"/>
		<circle class="st4" cx="147.3" cy="662.7" r="46.9"/>
		<circle class="st3" cx="266.6" cy="887.2" r="46.9"/>
		<circle class="st3" cx="149.2" cy="510.5" r="46.9"/>
		<circle class="st3" cx="419.8" cy="141.8" r="46.9"/>
		<circle class="st4" cx="697.4" cy="85.4" r="46.9"/>
	</g>
</g>
</svg>
