<?xml version="1.0" encoding="UTF-8"?> <!-- Generator: Adobe Illustrator 23.0.1, SVG Export Plug-In . SVG Version: 6.00 Build 0) --> <svg xmlns="http://www.w3.org/2000/svg" xmlns:xlink="http://www.w3.org/1999/xlink" id="Layer_1" x="0px" y="0px" viewBox="0 0 400 245" style="enable-background:new 0 0 400 245;" xml:space="preserve"> <style type="text/css"> .st0{clip-path:url(#SVGID_2_);fill:#F99F44;} .st1{fill:#F99F44;} .st2{fill:#24272A;} .st3{fill:#9D9FA2;} .st4{fill:#AAD14F;} .st5{clip-path:url(#SVGID_4_);fill:#AAD14F;} .st6{clip-path:url(#SVGID_4_);fill:#46BA86;} .st7{fill:#46BA86;} .st8{fill:#556EB5;} .st9{clip-path:url(#SVGID_6_);fill:#556EB5;} .st10{clip-path:url(#SVGID_6_);fill:#FEC410;} .st11{clip-path:url(#SVGID_6_);fill:#24272A;} .st12{fill:#0075C9;} .st13{fill:#54C8E8;} .st14{fill:#F1564A;} .st15{clip-path:url(#SVGID_8_);fill:#F1564A;} .st16{clip-path:url(#SVGID_8_);fill:#DCDDDE;} .st17{clip-path:url(#SVGID_10_);fill:#24272A;} .st18{fill:#5BC5C2;} .st19{clip-path:url(#SVGID_12_);fill:#00538B;} .st20{fill:#00538B;} .st21{fill:#8C9091;} .st22{fill:#2F3134;} .st23{clip-path:url(#SVGID_14_);fill:#2F3134;} .st24{fill:#FFFFFF;} .st25{fill:#845778;} .st26{clip-path:url(#SVGID_16_);fill:#845778;} .st27{clip-path:url(#SVGID_16_);fill:#F38064;} .st28{clip-path:url(#SVGID_16_);fill:#F9BD89;} .st29{clip-path:url(#SVGID_16_);fill:#57C4C2;} .st30{clip-path:url(#SVGID_16_);fill:#978BA4;} .st31{clip-path:url(#SVGID_16_);fill:#90D1C2;} .st32{fill:#BF97BA;} .st33{fill:#BDE3DB;} .st34{clip-path:url(#SVGID_18_);fill:#FDDED2;} .st35{clip-path:url(#SVGID_18_);fill:#F59399;} .st36{clip-path:url(#SVGID_18_);fill:#F2B3BC;} .st37{clip-path:url(#SVGID_18_);fill:#FCCAB5;} .st38{clip-path:url(#SVGID_18_);fill:#52797D;} .st39{clip-path:url(#SVGID_18_);fill:#82C88F;} .st40{clip-path:url(#SVGID_18_);fill:#EDDAD9;} .st41{clip-path:url(#SVGID_18_);fill:#BDE3DB;} .st42{fill:#F8E0C1;} .st43{fill:#F1DDA6;} .st44{fill:#FDDED2;} .st45{fill:#E7ECD7;} .st46{clip-path:url(#SVGID_20_);fill:#F1564A;} .st47{clip-path:url(#SVGID_22_);fill:#97D6D7;} .st48{fill:#97D6D7;} .st49{clip-path:url(#SVGID_24_);fill:#E3262D;} .st50{fill:none;stroke:#FFFFFF;stroke-width:0.7583;stroke-miterlimit:10;} .st51{fill:none;stroke:#FFFFFF;stroke-width:0.7617;stroke-miterlimit:10;} .st52{clip-path:url(#SVGID_26_);fill:#2F3134;} .st53{fill:#E3262D;} </style> <g> <polygon class="st2" points="146.51,91.27 157.08,91.21 157.13,101.87 162.57,101.85 162.44,77.18 157,77.21 157.05,86.41 146.49,86.46 146.44,77.27 141,77.3 141.13,101.96 146.57,101.93 146.51,91.27 "></polygon> <polygon class="st2" points="175.74,101.94 181.18,101.91 181.13,91.39 190.32,77.2 183.87,77.23 178.38,86.5 173.1,77.29 166.34,77.33 175.69,91.42 175.74,101.94 "></polygon> <path class="st2" d="M202.38,81.82c0.51,0,1.05,0.02,1.6,0.08c0.56,0.06,1.07,0.19,1.52,0.39c0.46,0.21,0.83,0.5,1.12,0.88 c0.29,0.38,0.44,0.89,0.44,1.51c0,0.58-0.1,1.06-0.32,1.45c-0.22,0.38-0.51,0.69-0.87,0.91c-0.36,0.22-0.76,0.38-1.22,0.48 c-0.46,0.1-0.92,0.15-1.41,0.15l-3.62,0.02l-0.03-5.85L202.38,81.82L202.38,81.82z M199.7,101.9l-0.05-9.61l3.97-0.02 c1.3-0.01,2.51-0.14,3.62-0.39c1.11-0.25,2.07-0.66,2.89-1.25c0.81-0.59,1.45-1.37,1.91-2.34c0.46-0.98,0.68-2.19,0.68-3.63 c-0.01-1.46-0.27-2.68-0.77-3.64c-0.5-0.96-1.18-1.72-2.03-2.29c-0.85-0.56-1.85-0.96-2.99-1.18c-1.14-0.23-2.35-0.34-3.63-0.33 l-9.17,0.05l0.13,24.66L199.7,101.9L199.7,101.9z"></path> <polygon class="st2" points="234.01,101.86 233.99,96.84 222.03,96.9 222,91.89 232.71,91.83 232.68,86.81 221.98,86.87 221.95,82.27 233.28,82.21 233.25,77.2 216.49,77.29 216.62,101.95 234.01,101.86 "></polygon> <path class="st2" d="M243.27,87.44l-0.03-5.61l3.56-0.02c0.49,0,0.99,0.03,1.5,0.09c0.51,0.07,0.97,0.2,1.36,0.39 c0.4,0.2,0.72,0.48,0.98,0.85c0.25,0.37,0.39,0.87,0.39,1.5c0,0.67-0.14,1.19-0.43,1.57c-0.29,0.37-0.65,0.65-1.1,0.82 c-0.44,0.18-0.93,0.28-1.48,0.32c-0.55,0.04-1.06,0.06-1.55,0.06L243.27,87.44L243.27,87.44z M251.19,101.86l6.52-0.03l-6.33-10.38 c1.74-0.33,3.07-1.11,3.96-2.34c0.9-1.23,1.35-2.71,1.34-4.45c-0.01-1.44-0.26-2.64-0.77-3.6c-0.5-0.96-1.18-1.72-2.03-2.29 c-0.86-0.56-1.84-0.97-2.97-1.2c-1.12-0.24-2.32-0.35-3.57-0.35l-9.55,0.05l0.13,24.66l5.44-0.03l-0.05-9.86l2.69-0.01 L251.19,101.86L251.19,101.86z"></path> <polygon class="st2" points="276.99,101.82 276.96,96.81 266.89,96.86 266.78,77.21 261.35,77.24 261.47,101.9 276.99,101.82 "></polygon> <polygon class="st2" points="298.29,101.84 298.26,96.83 286.3,96.89 286.27,91.87 296.98,91.81 296.95,86.8 286.25,86.86 286.22,82.26 297.55,82.2 297.53,77.18 280.76,77.27 280.89,101.93 298.29,101.84 "></polygon> <path class="st2" d="M310.42,96.87l-2.82,0.02l-0.08-14.63l3.21-0.02c1.14,0,2.23,0.13,3.26,0.42c1.03,0.28,1.94,0.71,2.71,1.29 c0.77,0.58,1.38,1.31,1.84,2.2c0.46,0.89,0.69,1.94,0.7,3.15c0.01,1.39-0.21,2.57-0.66,3.54c-0.45,0.97-1.07,1.75-1.85,2.34 c-0.79,0.6-1.72,1.02-2.8,1.29C312.85,96.73,311.68,96.86,310.42,96.87L310.42,96.87z M320.75,98.67c1.27-1.04,2.28-2.32,3.03-3.85 c0.75-1.52,1.12-3.29,1.1-5.28c-0.01-2.25-0.41-4.16-1.2-5.74c-0.79-1.58-1.85-2.85-3.18-3.83c-1.33-0.98-2.89-1.69-4.67-2.12 c-1.78-0.43-3.66-0.64-5.63-0.63l-8.16,0.04l0.13,24.66l8.89-0.05c1.83-0.01,3.59-0.28,5.26-0.83 C318.01,100.51,319.48,99.71,320.75,98.67L320.75,98.67z"></path> <path class="st2" d="M342.66,87.27l0.03,5.02l4.43-0.02l0.02,4.01c-0.51,0.28-1.19,0.56-2.05,0.83c-0.86,0.27-1.88,0.41-3.07,0.42 c-1.16,0-2.22-0.18-3.16-0.57c-0.94-0.39-1.75-0.94-2.43-1.64c-0.68-0.7-1.2-1.54-1.56-2.5c-0.37-0.96-0.55-2.02-0.56-3.18 c-0.01-1.14,0.17-2.19,0.52-3.17c0.36-0.98,0.87-1.82,1.54-2.54c0.67-0.71,1.48-1.26,2.42-1.67c0.94-0.4,1.99-0.6,3.15-0.61 c1.39-0.01,2.56,0.18,3.49,0.57c0.93,0.39,1.77,0.97,2.52,1.73l3.81-4.2c-1.26-1.16-2.73-1.97-4.39-2.43 c-1.66-0.47-3.48-0.7-5.46-0.68c-1.93,0.01-3.71,0.32-5.32,0.94c-1.63,0.61-3.03,1.48-4.21,2.61c-1.18,1.13-2.1,2.5-2.75,4.11 c-0.65,1.61-0.98,3.39-0.97,5.37c0.01,1.98,0.35,3.76,1.02,5.36c0.67,1.6,1.6,2.96,2.8,4.08c1.19,1.12,2.6,1.98,4.23,2.57 c1.63,0.59,3.41,0.88,5.34,0.88c1.81-0.01,3.59-0.2,5.33-0.59c1.74-0.38,3.41-0.99,5.01-1.84l-0.07-12.89L342.66,87.27 L342.66,87.27z"></path> <polygon class="st2" points="373.68,101.27 373.65,96.26 361.69,96.32 361.66,91.3 372.37,91.25 372.34,86.23 361.64,86.29 361.62,81.69 372.94,81.63 372.92,76.61 356.15,76.7 356.28,101.36 373.68,101.27 "></polygon> <path class="st2" d="M386.46,81.23c0.49,0,0.99,0.03,1.5,0.1c0.51,0.07,0.97,0.2,1.36,0.39c0.4,0.2,0.73,0.48,0.98,0.85 c0.25,0.37,0.39,0.87,0.39,1.5c0,0.67-0.14,1.2-0.43,1.57c-0.29,0.37-0.65,0.65-1.09,0.82c-0.44,0.18-0.93,0.28-1.48,0.32 c-0.55,0.04-1.06,0.06-1.55,0.06l-3.21,0.02l-0.03-5.61L386.46,81.23L386.46,81.23z M383.01,101.32l-0.05-9.86l2.68-0.01l5.21,9.83 l6.52-0.03l-6.33-10.38c1.74-0.34,3.06-1.11,3.96-2.34c0.9-1.23,1.34-2.71,1.34-4.45c-0.01-1.44-0.26-2.64-0.77-3.6 c-0.51-0.96-1.18-1.73-2.03-2.29c-0.85-0.56-1.84-0.97-2.97-1.2c-1.13-0.24-2.32-0.35-3.57-0.35l-9.55,0.05l0.13,24.66 L383.01,101.32L383.01,101.32z"></path> <polygon class="st14" points="141.25,119.61 173.05,119.61 173.05,126.04 148.11,126.04 148.11,141.91 171.33,141.91 171.33,148.34 148.11,148.34 148.11,170.2 141.25,170.2 141.25,119.61 "></polygon> <path class="st14" d="M206.13,151.69l-9.43-23.22h-0.14l-9.57,23.22H206.13L206.13,151.69z M193.84,119.61h6.22l21.65,50.59h-8 l-5.07-12.5h-24.08l-5,12.5h-8L193.84,119.61L193.84,119.61z"></path> <path class="st14" d="M232.28,164.2h10.07c4.14,0,10.93-1.43,10.93-8.57c0-6-4.21-9-10.86-9h-10.15V164.2L232.28,164.2z M232.28,140.62h9.36c5.22,0,9.43-2.07,9.43-7.57c0-4-2.5-7.43-8-7.43h-10.79V140.62L232.28,140.62z M225.43,119.61H243 c8.79,0,15.36,4.07,15.36,12.65c0,5.79-3.57,9.43-8.72,11.15v0.14c6.07,0.43,10.93,5.79,10.93,12.57c0,9.07-7.93,14.08-17.79,14.08 h-17.36V119.61L225.43,119.61z"></path> <path class="st14" d="M275.87,141.91h9c5.43,0,10.86-1.29,10.86-8.15c0-6.86-5.43-8.14-10.86-8.14h-9V141.91L275.87,141.91z M269.01,119.61h17.79c12.93,0,16.22,7.79,16.22,14.15c0,6.43-4.79,12.5-12.43,13.36l14.36,23.08h-8.57l-12.86-22.29h-7.64v22.29 h-6.86V119.61L269.01,119.61z"></path> <polygon class="st14" points="312.67,119.61 319.53,119.61 319.53,170.2 312.67,170.2 312.67,119.61 "></polygon> <g> <defs> <rect id="SVGID_19_" x="2.63" y="67.28" width="394.74" height="110.45"></rect> </defs> <clipPath id="SVGID_2_"> <use xlink:href="#SVGID_19_" style="overflow:visible;"></use> </clipPath> <path style="clip-path:url(#SVGID_2_);fill:#F1564A;" d="M364.9,130.55c-2.86-3.71-7.57-5.79-12.22-5.79 c-11.36,0-18.86,9.07-18.86,20.58c0,10.65,7.07,19.72,18.86,19.72c5.79,0,10.22-2.57,13.22-6.79l5.79,4.36 c-1.5,2.07-7.57,8.86-19.15,8.86c-16.08,0-26.01-13.43-26.01-26.15c0-15.72,10.79-27.01,26.37-27.01c6.64,0,13.65,2.5,17.72,7.86 L364.9,130.55L364.9,130.55z"></path> <path style="clip-path:url(#SVGID_2_);fill:#F1564A;" d="M20.32,148.85c-0.48,1.01-1.7,1.44-2.71,0.96l-13.82-6.59 c-1.01-0.48-1.44-1.7-0.96-2.71l2.4-5.03c0.48-1.01,1.7-1.44,2.71-0.96l13.82,6.59c1.01,0.48,1.44,1.7,0.96,2.71L20.32,148.85 L20.32,148.85z M65.1,170.22c-0.48,1.01-1.7,1.44-2.71,0.96l-22.61-10.79c-1.01-0.48-1.44-1.7-0.96-2.71l2.4-5.03 c0.48-1.01,1.7-1.44,2.71-0.96l22.61,10.79c1.01,0.48,1.44,1.7,0.96,2.71L65.1,170.22L65.1,170.22z"></path> </g> <path class="st14" d="M74.76,92.36c-0.48,1.01-1.7,1.44-2.71,0.96L49.57,82.59c-1.01-0.48-1.44-1.7-0.96-2.71l2.4-5.03 c0.48-1.01,1.7-1.44,2.71-0.96L76.2,84.61c1.01,0.48,1.44,1.7,0.96,2.71L74.76,92.36L74.76,92.36z M110.78,109.54 c-0.48,1.01-1.7,1.44-2.71,0.96l-13.84-6.61c-1.01-0.48-1.44-1.7-0.96-2.71l2.4-5.03c0.48-1.01,1.7-1.44,2.71-0.96l13.84,6.61 c1.01,0.48,1.44,1.7,0.96,2.71L110.78,109.54L110.78,109.54z"></path> <path class="st14" d="M41.69,104.06c-0.48,1.01-1.7,1.44-2.71,0.96l-13.82-6.59c-1.01-0.48-1.44-1.7-0.96-2.71l2.4-5.03 c0.48-1.01,1.7-1.44,2.71-0.96l13.82,6.59c1.01,0.48,1.44,1.7,0.96,2.71L41.69,104.06L41.69,104.06z"></path> <path class="st14" d="M86.47,125.43c-0.48,1.01-1.7,1.44-2.71,0.96l-22.61-10.79c-1.01-0.48-1.44-1.7-0.96-2.71l2.4-5.03 c0.48-1.01,1.7-1.44,2.71-0.96l22.61,10.79c1.01,0.48,1.44,1.7,0.96,2.71L86.47,125.43L86.47,125.43z"></path> <path class="st14" d="M89.44,154.34c-0.48,1.01-1.7,1.44-2.71,0.96l-13.87-6.62c-1.01-0.48-1.44-1.7-0.96-2.71l2.4-5.03 c0.48-1.01,1.7-1.44,2.71-0.96l13.87,6.62c1.01,0.48,1.44,1.7,0.96,2.71L89.44,154.34L89.44,154.34z"></path> <path class="st14" d="M53.39,137.14c-0.48,1.01-1.7,1.44-2.71,0.96l-22.55-10.76c-1.01-0.48-1.44-1.7-0.96-2.71l2.4-5.03 c0.48-1.01,1.7-1.44,2.71-0.96l22.55,10.76c1.01,0.48,1.44,1.7,0.96,2.71L53.39,137.14L53.39,137.14z"></path> <g> <defs> <rect id="SVGID_21_" x="2.63" y="67.28" width="394.74" height="110.45"></rect> </defs> <clipPath id="SVGID_4_"> <use xlink:href="#SVGID_21_" style="overflow:visible;"></use> </clipPath> <path style="clip-path:url(#SVGID_4_);fill:#97D6D7;" d="M18.02,131.05c-0.48,1.01-1.7,1.44-2.71,0.96l-5.03-2.4 c-1.01-0.48-1.44-1.7-0.96-2.71l10.79-22.6c0.48-1.01,1.7-1.44,2.71-0.96l5.03,2.4c1.01,0.48,1.44,1.7,0.96,2.71L18.02,131.05 L18.02,131.05z"></path> <path style="clip-path:url(#SVGID_4_);fill:#97D6D7;" d="M39.39,86.27c-0.48,1.01-1.7,1.44-2.71,0.96l-5.03-2.4 c-1.01-0.48-1.44-1.7-0.96-2.71l6.53-13.68c0.48-1.01,1.7-1.44,2.71-0.96l5.03,2.4c1.01,0.48,1.44,1.7,0.96,2.71L39.39,86.27 L39.39,86.27z"></path> <path style="clip-path:url(#SVGID_4_);fill:#97D6D7;" d="M78.77,176.57c-0.48,1.01-1.7,1.44-2.71,0.96l-5.03-2.4 c-1.01-0.48-1.44-1.7-0.96-2.71l6.53-13.68c0.48-1.01,1.7-1.44,2.71-0.96l5.03,2.4c1.01,0.48,1.44,1.7,0.96,2.71L78.77,176.57 L78.77,176.57z"></path> </g> <path class="st48" d="M95.88,140.71c-0.48,1.01-1.7,1.44-2.71,0.96l-5.03-2.4c-1.01-0.48-1.44-1.7-0.96-2.71l10.79-22.61 c0.48-1.01,1.7-1.44,2.71-0.96l5.03,2.4c1.01,0.48,1.44,1.7,0.96,2.71L95.88,140.71L95.88,140.71z"></path> <path class="st48" d="M84.18,107.64c-0.48,1.01-1.7,1.44-2.71,0.96l-5.03-2.4c-1.01-0.48-1.44-1.7-0.96-2.71l6.53-13.68 c0.48-1.01,1.7-1.44,2.71-0.96l5.03,2.4c1.01,0.48,1.44,1.7,0.96,2.71L84.18,107.64L84.18,107.64z"></path> <path class="st48" d="M62.81,152.42c-0.48,1.01-1.7,1.44-2.71,0.96l-5.03-2.4c-1.01-0.48-1.44-1.7-0.96-2.71l10.79-22.6 c0.48-1.01,1.7-1.44,2.71-0.96l5.03,2.4c1.01,0.48,1.44,1.7,0.96,2.71L62.81,152.42L62.81,152.42z"></path> <path class="st48" d="M33.99,155.2c-0.48,1.01-1.7,1.44-2.71,0.96l-5.03-2.4c-1.01-0.48-1.44-1.7-0.96-2.71l6.53-13.68 c0.48-1.01,1.7-1.44,2.71-0.96l5.03,2.4c1.01,0.48,1.44,1.7,0.96,2.71L33.99,155.2L33.99,155.2z"></path> <path class="st48" d="M51.1,119.34c-0.48,1.01-1.7,1.44-2.71,0.96l-5.03-2.4c-1.01-0.48-1.44-1.7-0.96-2.71l10.79-22.61 c0.48-1.01,1.7-1.44,2.71-0.96l5.03,2.4c1.01,0.48,1.44,1.7,0.96,2.71L51.1,119.34L51.1,119.34z"></path> </g> </svg> 