<?xml version="1.0" encoding="UTF-8" standalone="no"?>
<svg
   xmlns:dc="http://purl.org/dc/elements/1.1/"
   xmlns:cc="http://creativecommons.org/ns#"
   xmlns:rdf="http://www.w3.org/1999/02/22-rdf-syntax-ns#"
   xmlns:svg="http://www.w3.org/2000/svg"
   xmlns="http://www.w3.org/2000/svg"
   xmlns:sodipodi="http://sodipodi.sourceforge.net/DTD/sodipodi-0.dtd"
   xmlns:inkscape="http://www.inkscape.org/namespaces/inkscape"
   id="Lagom_Full_Color"
   class="svg-logo svg-logo-lagom-full-color"
   data-name="Lagom Full Color"
   viewBox="0 0 752 192"
   version="1.1"
   sodipodi:docname="lagom-icon.svg"
   inkscape:version="1.0 (4035a4f, 2020-05-01)">
  <metadata
     id="metadata525">
    <rdf:RDF>
      <cc:Work
         rdf:about="">
        <dc:format>image/svg+xml</dc:format>
        <dc:type
           rdf:resource="http://purl.org/dc/dcmitype/StillImage" />
        <dc:title>logom</dc:title>
      </cc:Work>
    </rdf:RDF>
  </metadata>
  <defs
     id="defs523" />
  <sodipodi:namedview
     inkscape:document-rotation="0"
     pagecolor="#ffffff"
     bordercolor="#666666"
     borderopacity="1"
     objecttolerance="10"
     gridtolerance="10"
     guidetolerance="10"
     inkscape:pageopacity="0"
     inkscape:pageshadow="2"
     inkscape:window-width="1680"
     inkscape:window-height="926"
     id="namedview521"
     showgrid="false"
     inkscape:lockguides="false"
     inkscape:zoom="1.1586799"
     inkscape:cx="456.21874"
     inkscape:cy="121.86815"
     inkscape:window-x="0"
     inkscape:window-y="23"
     inkscape:window-maximized="1"
     inkscape:current-layer="Lagom_Full_Color" />
  <title
     id="title482">logom</title>
  <g
     transform="translate(245)"
     id="Icon">
    <path
       d="m 261,84 -70,34 70,34 c 0,0 -0.22,-67.73 0,-68 z"
       fill="#652b7c"
       id="path495" />
    <polygon
       points="191,118 121,84 121,152 "
       fill="#652b7c"
       id="polygon497" />
    <path
       d="m 191,118 70,34 c -0.27,0 -41.76,25 -60.63,36.24 a 17.64,17.64 0 0 1 -18,0 C 163.47,177 121,152 121,152 Z"
       fill="#421540"
       id="path499" />
    <path
       d="M 200.23,47.65 C 219.09,58.88 261,84 261,84 l -70,34 -70,-34 c 0.27,0 42.31,-25.12 61.18,-36.36 a 17.64,17.64 0 0 1 18.05,0.01 z"
       fill="#bf97c6"
       id="path501" />
    <path
       d="m 145,20.58 -35,17 35,17 c 0,0 -0.11,-33.86 0,-34 z"
       fill="#652b7c"
       id="path503" />
    <polygon
       points="110,37.58 75,20.58 75,54.58 "
       fill="#652b7c"
       id="polygon505" />
    <path
       d="m 110,37.58 35,17 c -0.14,0 -20.88,12.5 -30.31,18.12 a 8.82,8.82 0 0 1 -9,0 C 96.23,67.08 75,54.58 75,54.58 Z"
       fill="#421540"
       id="path507" />
    <path
       d="M 114.61,2.4 C 124,8 145,20.58 145,20.58 l -35,17 -35,-17 C 75.14,20.59 96.16,8 105.59,2.4 a 8.82,8.82 0 0 1 9.02,0 z"
       fill="#bf97c6"
       id="path509" />
    <path
       d="m 101,91 -50,24.54 50,24.53 c 0,0 -0.16,-48.86 0,-49.07 z"
       fill="#652b7c"
       id="path511" />
    <polygon
       points="51,115.54 1,91.02 1,140.07 "
       fill="#652b7c"
       id="polygon513" />
    <path
       d="m 51,115.54 50,24.53 c -0.19,0 -29.83,18 -43.3,26.14 a 12.5,12.5 0 0 1 -12.89,0 C 31.34,158.1 1,140.07 1,140.07 Z"
       fill="#421540"
       id="path515" />
    <path
       d="M 57.59,64.79 C 71.06,72.9 101,91 101,91 L 51,115.54 1,91 C 1.19,91 31.22,72.9 44.7,64.79 a 12.5,12.5 0 0 1 12.89,0 z"
       fill="#bf97c6"
       id="path517" />
  </g>
</svg>
